<svg width="149" height="154" viewBox="0 0 149 154" fill="none" xmlns="http://www.w3.org/2000/svg">
<path fill-rule="evenodd" clip-rule="evenodd" d="M149 139.005C149 147.111 142.726 154 134.492 154C126.65 154 119.984 147.516 119.984 139.005C119.984 130.9 126.258 124.011 134.492 124.011C142.726 124.011 149 130.9 149 139.005ZM22.35 153.19V73.3527L22.7421 54.3054C23.5263 40.1211 32.1526 28.7738 43.9158 25.1264C57.2474 21.0738 72.1474 25.9369 79.2053 36.879C86.6553 48.6317 87.0474 61.1948 81.1658 73.758C75.6763 85.5106 65.4816 89.9685 53.3263 89.9685H30.5842V111.447H61.1684C66.2658 111.042 71.3632 110.232 75.6763 108.205C95.2816 99.6948 104.3 83.079 106.261 62.0054C108.613 40.1211 98.0263 19.4527 79.2053 8.91588C60.3842 -1.62096 36.0737 9.37348e-05 20.3895 12.9685C6.27368 25.9369 0 42.958 0 62.4106V153.19H22.35ZM85.0868 153.19H107.437V90.3738C105.868 96.0475 99.2026 107.395 85.0868 113.879V153.19Z" fill="url(#paint0_linear_1403_147)"/>
<defs>
<linearGradient id="paint0_linear_1403_147" x1="6.75597" y1="160.152" x2="121.585" y2="49.0547" gradientUnits="userSpaceOnUse">
<stop offset="0.007" stop-color="#6A00FB"/>
<stop offset="0.06" stop-color="#7001F3"/>
<stop offset="0.142" stop-color="#8002DD"/>
<stop offset="0.244" stop-color="#9904B9"/>
<stop offset="0.361" stop-color="#BD0787"/>
<stop offset="0.489" stop-color="#EB0B48"/>
<stop offset="0.541" stop-color="#FF0D2C"/>
<stop offset="1" stop-color="#FCC60C"/>
</linearGradient>
</defs>
</svg>
