<svg width="19" height="18" viewBox="0 0 19 18" fill="none" xmlns="http://www.w3.org/2000/svg">
<path d="M17.2 17.8L10.9 11.5C10.4 11.9 9.78733 12.2127 9.062 12.438C8.33733 12.6627 7.64167 12.775 6.975 12.775C5.19167 12.775 3.68767 12.1627 2.463 10.938C1.23767 9.71267 0.625 8.21667 0.625 6.45C0.625 4.68333 1.23767 3.18767 2.463 1.963C3.68767 0.737666 5.18333 0.125 6.95 0.125C8.71667 0.125 10.2167 0.737666 11.45 1.963C12.6833 3.18767 13.3 4.68333 13.3 6.45C13.3 7.16667 13.1877 7.86667 12.963 8.55C12.7377 9.23333 12.425 9.81667 12.025 10.3L18.375 16.65L17.2 17.8ZM6.975 11.125C8.29167 11.125 9.4 10.679 10.3 9.787C11.2 8.89567 11.65 7.78333 11.65 6.45C11.65 5.11667 11.2 4.004 10.3 3.112C9.4 2.22067 8.29167 1.775 6.975 1.775C5.64167 1.775 4.525 2.22067 3.625 3.112C2.725 4.004 2.275 5.11667 2.275 6.45C2.275 7.78333 2.725 8.89567 3.625 9.787C4.525 10.679 5.64167 11.125 6.975 11.125ZM6.15 9.225V7.25H4.15V5.6H6.15V3.625H7.8V5.6H9.775V7.25H7.8V9.225H6.15Z" fill="#0B3C5F"/>
</svg>
